<svg width="48" height="48" viewBox="0 0 48 48" fill="none" xmlns="http://www.w3.org/2000/svg">
<circle cx="24" cy="24" r="24" fill="#2C3727"/>
<path d="M30.668 10.6666H17.3346C13.6527 10.6666 10.668 13.6514 10.668 17.3333V30.6666C10.668 34.3485 13.6527 37.3333 17.3346 37.3333H30.668C34.3499 37.3333 37.3346 34.3485 37.3346 30.6666V17.3333C37.3346 13.6514 34.3499 10.6666 30.668 10.6666Z" stroke="#A3C593" stroke-width="2.66667" stroke-linecap="round" stroke-linejoin="round"/>
<path d="M29.3346 23.1598C29.4991 24.2695 29.3096 25.4027 28.7929 26.3985C28.2762 27.3942 27.4588 28.2017 26.4567 28.706C25.4547 29.2104 24.3192 29.3859 23.2116 29.2077C22.1041 29.0295 21.0809 28.5066 20.2877 27.7133C19.4945 26.9201 18.9715 25.897 18.7933 24.7894C18.6151 23.6819 18.7907 22.5463 19.295 21.5443C19.7994 20.5423 20.6068 19.7248 21.6026 19.2081C22.5983 18.6914 23.7316 18.5019 24.8412 18.6665C25.9731 18.8343 27.021 19.3617 27.8302 20.1709C28.6393 20.98 29.1667 22.0279 29.3346 23.1598Z" stroke="#A3C593" stroke-width="2.66667" stroke-linecap="round" stroke-linejoin="round"/>
<path d="M31.335 16.6666H31.3483" stroke="#A3C593" stroke-width="2.66667" stroke-linecap="round" stroke-linejoin="round"/>
</svg>
