<svg width="48" height="48" viewBox="0 0 48 48" fill="none" xmlns="http://www.w3.org/2000/svg">
<circle cx="24" cy="24" r="24" fill="#2C3727"/>
<path d="M29.335 18.6666C31.4567 18.6666 33.4915 19.5095 34.9918 21.0098C36.4921 22.5101 37.335 24.5449 37.335 26.6666V36H32.0016V26.6666C32.0016 25.9594 31.7207 25.2811 31.2206 24.781C30.7205 24.2809 30.0422 24 29.335 24C28.6277 24 27.9494 24.2809 27.4493 24.781C26.9492 25.2811 26.6683 25.9594 26.6683 26.6666V36H21.335V26.6666C21.335 24.5449 22.1778 22.5101 23.6781 21.0098C25.1784 19.5095 27.2132 18.6666 29.335 18.6666Z" stroke="#A3C593" stroke-width="2.66667" stroke-linecap="round" stroke-linejoin="round"/>
<path d="M16.0013 20H10.668V36H16.0013V20Z" stroke="#A3C593" stroke-width="2.66667" stroke-linecap="round" stroke-linejoin="round"/>
<path d="M13.3346 16C14.8074 16 16.0013 14.8061 16.0013 13.3333C16.0013 11.8605 14.8074 10.6666 13.3346 10.6666C11.8619 10.6666 10.668 11.8605 10.668 13.3333C10.668 14.8061 11.8619 16 13.3346 16Z" stroke="#A3C593" stroke-width="2.66667" stroke-linecap="round" stroke-linejoin="round"/>
</svg>
