<svg width="36" height="36" viewBox="0 0 36 36" fill="none" xmlns="http://www.w3.org/2000/svg">
<g clip-path="url(#clip0_1446_5605)">
<path d="M28.0004 22.92V25.92C28.0016 26.1985 27.9445 26.4741 27.8329 26.7293C27.7214 26.9845 27.5577 27.2136 27.3525 27.4018C27.1473 27.5901 26.905 27.7335 26.6412 27.8227C26.3773 27.9119 26.0978 27.945 25.8204 27.92C22.7433 27.5856 19.7874 26.5341 17.1904 24.85C14.7742 23.3146 12.7258 21.2661 11.1904 18.85C9.5004 16.2412 8.44866 13.271 8.12042 10.18C8.09543 9.90344 8.1283 9.62474 8.21692 9.3616C8.30555 9.09846 8.44799 8.85666 8.63519 8.6516C8.82238 8.44653 9.05023 8.28268 9.30421 8.1705C9.5582 8.05831 9.83276 8.00024 10.1104 7.99997H13.1104C13.5957 7.9952 14.0662 8.16705 14.4342 8.48351C14.8022 8.79996 15.0425 9.23942 15.1104 9.71997C15.237 10.68 15.4719 11.6227 15.8104 12.53C15.945 12.8879 15.9741 13.2769 15.8943 13.6509C15.8146 14.0248 15.6293 14.3681 15.3604 14.64L14.0904 15.91C15.514 18.4135 17.5869 20.4864 20.0904 21.91L21.3604 20.64C21.6323 20.3711 21.9756 20.1858 22.3495 20.1061C22.7235 20.0263 23.1125 20.0554 23.4704 20.19C24.3777 20.5285 25.3204 20.7634 26.2804 20.89C26.7662 20.9585 27.2098 21.2032 27.527 21.5775C27.8441 21.9518 28.0126 22.4296 28.0004 22.92Z" stroke="#607556" stroke-width="2" stroke-linecap="round" stroke-linejoin="round"/>
</g>
<defs>
<clipPath id="clip0_1446_5605">
<rect width="36" height="36" fill="white"/>
</clipPath>
</defs>
</svg>
