<svg xmlns="http://www.w3.org/2000/svg" width="80" height="16" viewBox="0 0 80 16" fill="#D9A000">
  <path d="M8 1l1.8 3.6L14 5.5l-3 2.9.7 4.1L8 10.4l-3.7 2.1.7-4.1L2 5.5l4.2-.9L8 1z"/>
  <path d="M24 1l1.8 3.6L30 5.5l-3 2.9.7 4.1L24 10.4l-3.7 2.1.7-4.1L18 5.5l4.2-.9L24 1z"/>
  <path d="M40 1l1.8 3.6L46 5.5l-3 2.9.7 4.1L40 10.4l-3.7 2.1.7-4.1L34 5.5l4.2-.9L40 1z"/>
  <path d="M56 1l1.8 3.6L62 5.5l-3 2.9.7 4.1L56 10.4l-3.7 2.1.7-4.1L50 5.5l4.2-.9L56 1z"/>
  <path d="M72 1l1.8 3.6L78 5.5l-3 2.9.7 4.1L72 10.4l-3.7 2.1.7-4.1L66 5.5l4.2-.9L72 1z"/>
</svg>
