<svg width="48" height="48" viewBox="0 0 48 48" fill="none" xmlns="http://www.w3.org/2000/svg">
<ellipse cx="23.9258" cy="24" rx="23.9258" ry="24" fill="#2C3727"/>
<path d="M35.212 12.6461C32.3415 9.77564 28.3762 8 23.9957 8C15.236 8 8.13339 15.1015 8.13339 23.8623C8.13339 26.7776 8.91983 29.5083 10.291 31.8559L10.2505 31.7812L8 40L16.4076 37.7943C18.5962 39.0097 21.2074 39.7247 23.9861 39.7247H23.9925C32.7523 39.7215 39.8517 32.6189 39.8517 23.8591C39.8517 19.4809 38.0782 15.5177 35.2109 12.6472L35.212 12.6461ZM23.9925 37.0452H23.9872C21.5126 37.0452 19.1959 36.3623 17.2186 35.1746L17.2784 35.2077L16.7971 34.9228L11.8085 36.2321L13.1391 31.3672L12.8254 30.8689C11.5609 28.882 10.8097 26.4607 10.8097 23.8634C10.8097 16.5837 16.7118 10.6816 23.9915 10.6816C31.2712 10.6816 37.1733 16.5837 37.1733 23.8634C37.1733 31.1431 31.2733 37.0452 23.9925 37.0452ZM31.2232 27.1735C30.8273 26.9751 28.8788 26.0179 28.5159 25.8845C28.1521 25.7522 27.8874 25.6871 27.6228 26.084C27.3603 26.4799 26.6005 27.372 26.3689 27.6367C26.1385 27.9024 25.9058 27.9344 25.5099 27.737C24.2828 27.2397 23.2285 26.577 22.3119 25.7607L22.3225 25.7703C21.4699 24.9807 20.739 24.0768 20.1489 23.0802L20.119 23.0247C19.8885 22.6288 20.0944 22.4143 20.2919 22.2169C20.4701 22.0397 20.6888 21.7538 20.8862 21.5233C21.042 21.3323 21.1754 21.1135 21.2768 20.8788L21.2832 20.8606C21.3291 20.7678 21.3557 20.66 21.3557 20.5448C21.3557 20.405 21.3163 20.2748 21.248 20.1638L21.2501 20.167C21.1498 19.9685 20.358 18.0179 20.0283 17.224C19.706 16.4514 19.3784 16.557 19.1362 16.5442C18.9057 16.5335 18.6411 16.5314 18.3764 16.5314C17.9549 16.5421 17.5804 16.732 17.3221 17.0255L17.3211 17.0276C16.4653 17.8397 15.9338 18.9847 15.9338 20.2534C15.9338 20.2812 15.9338 20.31 15.9349 20.3377V20.3335C16.0747 21.8989 16.6616 23.3043 17.5644 24.4492L17.5516 24.4332C19.2632 26.9719 21.5446 29.0025 24.222 30.3705L24.3223 30.4164C24.907 30.6811 25.6561 30.9639 26.4223 31.2061L26.5813 31.2498C27.053 31.3992 27.5961 31.4857 28.1595 31.4857C28.4829 31.4857 28.8009 31.4568 29.1082 31.4024L29.0751 31.4067C30.2158 31.1687 31.1623 30.4805 31.7396 29.5403L31.7492 29.5222C31.9253 29.1317 32.0277 28.676 32.0277 28.1969C32.0277 27.9995 32.0107 27.8063 31.9776 27.6185L31.9808 27.6388C31.8826 27.4734 31.618 27.3752 31.221 27.1757L31.2232 27.1735Z" fill="#A3C593"/>
</svg>
