<svg width="48" height="48" viewBox="0 0 48 48" fill="none" xmlns="http://www.w3.org/2000/svg">
<circle cx="24" cy="24" r="24" fill="#2C3727"/>
<g clip-path="url(#clip0_1446_5641)">
<path d="M38.0557 16.56C37.8973 15.9273 37.5748 15.3475 37.1206 14.8792C36.6664 14.411 36.0967 14.071 35.4691 13.8934C33.1757 13.3334 24.0024 13.3334 24.0024 13.3334C24.0024 13.3334 14.8291 13.3334 12.5357 13.9467C11.9081 14.1243 11.3384 14.4644 10.8842 14.9326C10.43 15.4008 10.1074 15.9806 9.94906 16.6134C9.52934 18.9408 9.32404 21.3018 9.33572 23.6667C9.32076 26.0494 9.52608 28.4284 9.94906 30.7734C10.1237 31.3865 10.4535 31.9442 10.9066 32.3927C11.3597 32.8411 11.9208 33.1651 12.5357 33.3334C14.8291 33.9467 24.0024 33.9467 24.0024 33.9467C24.0024 33.9467 33.1757 33.9467 35.4691 33.3334C36.0967 33.1558 36.6664 32.8157 37.1206 32.3475C37.5748 31.8793 37.8973 31.2995 38.0557 30.6667C38.4722 28.3568 38.6775 26.0138 38.6691 23.6667C38.684 21.284 38.4787 18.905 38.0557 16.56Z" stroke="#A3C593" stroke-width="2.66667" stroke-linecap="round" stroke-linejoin="round"/>
<path d="M21.001 28.0266L28.6676 23.6666L21.001 19.3066V28.0266Z" stroke="#A3C593" stroke-width="2.66667" stroke-linecap="round" stroke-linejoin="round"/>
</g>
<defs>
<clipPath id="clip0_1446_5641">
<rect width="32" height="32" fill="white" transform="translate(8 8)"/>
</clipPath>
</defs>
</svg>
